<svg xmlns="http://www.w3.org/2000/svg" xmlns:xlink="http://www.w3.org/1999/xlink" xmlns:inkscape="http://www.inkscape.org/namespaces/inkscape" version="1.1" width="222" height="316" viewBox="0 0 222 316">
<defs>
<clipPath id="clip_0">
<path transform="matrix(1,0,0,-1,-359,435)" d="M0 0H960V540H0Z"/>
</clipPath>
<clipPath id="clip_1">
<path transform="matrix(1,0,0,-1,-359,435)" d="M0 0H960V540H0Z"/>
</clipPath>
<clipPath id="clip_2">
<path transform="matrix(1,0,0,-1,-359,435)" d="M0 0H960V540H0Z"/>
</clipPath>
<clipPath id="clip_3">
<path transform="matrix(1,0,0,-1,-359,435)" d="M0 0H960V540H0Z"/>
</clipPath>
<clipPath id="clip_4">
<path transform="matrix(1,0,0,-1,-359,435)" d="M0 0H960V540H0Z"/>
</clipPath>
<clipPath id="clip_5">
<path transform="matrix(1,0,0,-1,-359,435)" d="M0 0H960V540H0Z"/>
</clipPath>
</defs>
<g clip-path="url(#clip_0)">
<g inkscape:groupmode="layer" inkscape:label="Background">
<path transform="matrix(1,0,0,-1,-359,435)" d="M0 0H960V540H0Z" fill="#ffffff"/>
</g>
<path transform="matrix(1,0,0,-1,26.019989,92.34)" stroke-width="3" stroke-linecap="butt" stroke-linejoin="round" fill="none" stroke="#333333" d="M0 0 84.193-135.054"/>
<path transform="matrix(1,0,0,-1,110.140018,225.5634)" stroke-width="3" stroke-linecap="butt" stroke-linejoin="round" fill="none" stroke="#333333" d="M0 0 88.665 133.223"/>
<path transform="matrix(1,0,0,-1,26.019989,90.54001)" stroke-width="3" stroke-linecap="butt" stroke-linejoin="round" fill="none" stroke="#333333" d="M0 0H191.903"/>
<g clip-path="url(#clip_1)">
<path transform="matrix(1,0,0,-1,.040008546,90.42001)" d="M0 0C0 14.282 11.578 25.86 25.86 25.86 40.142 25.86 51.72 14.282 51.72 0 51.72-14.282 40.142-25.86 25.86-25.86 11.578-25.86 0-14.282 0 0" fill="#5e9732" fill-rule="evenodd"/>
</g>
<text fill="#ffffff" xml:space="preserve" transform="matrix(1 0 -0 1 -359 435)" font-size="24" font-family="Calibri"><tspan y="-336.5202" x="377.9531">A</tspan></text>
<g clip-path="url(#clip_2)">
<path transform="matrix(1,0,0,-1,169.84003,90.42001)" d="M0 0C0 14.282 11.578 25.86 25.86 25.86 40.142 25.86 51.72 14.282 51.72 0 51.72-14.282 40.142-25.86 25.86-25.86 11.578-25.86 0-14.282 0 0" fill="#5e9732" fill-rule="evenodd"/>
</g>
<text fill="#ffffff" xml:space="preserve" transform="matrix(1 0 -0 1 -359 435)" font-size="24" font-family="Calibri"><tspan y="-336.5203" x="548.0586">B</tspan></text>
<g clip-path="url(#clip_3)">
<path transform="matrix(1,0,0,-1,83.92001,225.78)" d="M0 0C0 14.282 11.578 25.86 25.86 25.86 40.142 25.86 51.72 14.282 51.72 0 51.72-14.282 40.142-25.86 25.86-25.86 11.578-25.86 0-14.282 0 0" fill="#5e9732" fill-rule="evenodd"/>
</g>
<text fill="#ffffff" xml:space="preserve" transform="matrix(1 0 -0 1 -359 435)" font-size="24" font-family="Calibri"><tspan y="-201.1815" x="462.2425">C</tspan></text>
<path transform="matrix(1,0,0,-1,26.019989,17.820008)" stroke-width="2" stroke-linecap="butt" stroke-linejoin="round" fill="none" stroke="#0079c1" d="M0 0V-41.883"/>
<path transform="matrix(1,0,0,-1,29.020295,58.703187)" d="M0 0-3-6-6 0Z" fill="#0079c1" fill-rule="evenodd"/>
<text fill="#0079c1" xml:space="preserve" transform="matrix(1 0 -0 1 -359 435)" font-size="12" font-family="Calibri"><tspan y="-424.2129" x="359.0931 365.2131 367.97309 373.97309 376.73307">0 &#x003c; g</tspan></text>
<text fill="#0079c1" xml:space="preserve" transform="matrix(1 0 -0 1 -359 435)" font-size="8.04" font-family="Calibri"><tspan y="-421.3329" x="382.3731">A</tspan></text>
<text fill="#0079c1" xml:space="preserve" transform="matrix(1 0 -0 1 -359 435)" font-size="12" font-family="Calibri"><tspan y="-424.2129" x="389.6931 395.6931 398.4531">&#x003c; G</tspan></text>
<text fill="#0079c1" xml:space="preserve" transform="matrix(1 0 -0 1 -359 435)" font-size="8.04" font-family="Calibri"><tspan y="-421.3329" x="406.0131">A</tspan></text>
<path transform="matrix(1,0,0,-1,195.70001,15.179993)" stroke-width="2" stroke-linecap="butt" stroke-linejoin="round" fill="none" stroke="#0079c1" d="M0 0V-44.53"/>
<path transform="matrix(1,0,0,-1,198.70038,58.71051)" d="M0 0-3-6-6 0Z" fill="#0079c1" fill-rule="evenodd"/>
<text fill="#0079c1" xml:space="preserve" transform="matrix(1 0 -0 1 -359 435)" font-size="12" font-family="Calibri"><tspan y="-426.8603" x="529.1011 535.22109 537.9811 543.9811 546.7411">0 &#x003c; g</tspan></text>
<text fill="#0079c1" xml:space="preserve" transform="matrix(1 0 -0 1 -359 435)" font-size="8.04" font-family="Calibri"><tspan y="-423.9803" x="552.3812">B</tspan></text>
<text fill="#0079c1" xml:space="preserve" transform="matrix(1 0 -0 1 -359 435)" font-size="12" font-family="Calibri"><tspan y="-426.8603" x="559.4611 565.4611 568.2211">&#x003c; G</tspan></text>
<text fill="#0079c1" xml:space="preserve" transform="matrix(1 0 -0 1 -359 435)" font-size="8.04" font-family="Calibri"><tspan y="-423.9803" x="575.7811">B</tspan></text>
<path transform="matrix(1,0,0,-1,109.78,158.34)" stroke-width="2" stroke-linecap="butt" stroke-linejoin="round" fill="none" stroke="#0079c1" d="M0 0V-36.69"/>
<path transform="matrix(1,0,0,-1,112.780307,194.0304)" d="M0 0-3-6-6 0Z" fill="#0079c1" fill-rule="evenodd"/>
<text fill="#0079c1" xml:space="preserve" transform="matrix(1 0 -0 1 -359 435)" font-size="12" font-family="Calibri"><tspan y="-283.6814" x="443.285 449.405 452.16499 458.16499 460.92497">0 &#x003c; g</tspan></text>
<text fill="#0079c1" xml:space="preserve" transform="matrix(1 0 -0 1 -359 435)" font-size="8.04" font-family="Calibri"><tspan y="-280.8014" x="466.565">C</tspan></text>
<text fill="#0079c1" xml:space="preserve" transform="matrix(1 0 -0 1 -359 435)" font-size="12" font-family="Calibri"><tspan y="-283.6814" x="473.525 479.525 482.28498">&#x003c; G</tspan></text>
<text fill="#0079c1" xml:space="preserve" transform="matrix(1 0 -0 1 -359 435)" font-size="8.04" font-family="Calibri"><tspan y="-280.8014" x="489.845">C</tspan></text>
<text fill="#333333" xml:space="preserve" transform="matrix(1 0 -0 1 -359 435)" font-size="12" font-family="Calibri"><tspan y="-351.5476" x="439.8632">F</tspan></text>
<text fill="#333333" xml:space="preserve" transform="matrix(1 0 -0 1 -359 435)" font-size="8.04" font-family="Calibri"><tspan y="-348.6676" x="445.3832 449.70069">BA</tspan></text>
<text fill="#333333" xml:space="preserve" transform="matrix(1 0 -0 1 -359 435)" font-size="12" font-family="Calibri"><tspan y="-351.5476" x="457.1432 463.1432 465.9032">&#x003c; f</tspan></text>
<text fill="#333333" xml:space="preserve" transform="matrix(1 0 -0 1 -359 435)" font-size="8.04" font-family="Calibri"><tspan y="-348.6676" x="469.6232 474.30329">AB</tspan></text>
<text fill="#333333" xml:space="preserve" transform="matrix(1 0 -0 1 -359 435)" font-size="12" font-family="Calibri"><tspan y="-351.5476" x="481.2632 487.2632 490.0232">&#x003c; F</tspan></text>
<text fill="#333333" xml:space="preserve" transform="matrix(1 0 -0 1 -359 435)" font-size="8.04" font-family="Calibri"><tspan y="-348.6676" x="495.5432 500.2233">AB</tspan></text>
<g clip-path="url(#clip_4)">
<path transform="matrix(1,0,0,-1,50.850587,144.50061)" d="M0 0C-.063-.04-.119-.071-.169-.094-.219-.117-.264-.129-.302-.131-.341-.132-.374-.126-.4-.113-.427-.101-.448-.083-.463-.06L-1.959 2.28-4.131 .891-2.717-1.32C-2.702-1.343-2.694-1.369-2.691-1.398-2.689-1.427-2.696-1.458-2.712-1.491-2.728-1.524-2.756-1.559-2.796-1.594-2.836-1.629-2.891-1.668-2.96-1.712-3.022-1.752-3.078-1.783-3.127-1.805-3.175-1.827-3.219-1.839-3.257-1.84-3.296-1.841-3.329-1.836-3.358-1.824-3.386-1.812-3.408-1.795-3.423-1.772L-4.837 .44-7.497-1.262C-7.521-1.277-7.547-1.285-7.577-1.285-7.607-1.286-7.638-1.273-7.67-1.247-7.703-1.222-7.74-1.185-7.782-1.138-7.824-1.091-7.872-1.024-7.927-.939-7.977-.86-8.017-.79-8.044-.728-8.072-.667-8.09-.616-8.1-.576-8.109-.536-8.107-.502-8.095-.476-8.082-.449-8.064-.428-8.041-.413L-2.127 3.369C-1.999 3.451-1.888 3.475-1.793 3.44-1.699 3.405-1.628 3.35-1.58 3.274L.258 .401C.273 .378 .28 .352 .281 .322 .281 .292 .272 .26 .253 .224 .234 .189 .203 .153 .159 .116 .116 .079 .063 .04 0 0" fill="#333333"/>
<path transform="matrix(1,0,0,-1,45.4834,153.38791)" d="M0 0C-.035-.023-.067-.041-.095-.056-.123-.071-.148-.082-.172-.089-.195-.096-.217-.1-.238-.101-.259-.102-.288-.099-.324-.091-.36-.083-.423-.058-.514-.016-.604 .025-.704 .085-.814 .162-.924 .239-1.037 .336-1.154 .453-1.27 .569-1.38 .708-1.483 .869-1.661 1.147-1.775 1.427-1.825 1.71-1.876 1.993-1.861 2.271-1.781 2.545-1.701 2.818-1.556 3.082-1.344 3.337-1.133 3.591-.854 3.83-.508 4.051-.153 4.278 .193 4.435 .529 4.521 .865 4.607 1.183 4.629 1.481 4.587 1.78 4.545 2.054 4.441 2.303 4.276 2.551 4.11 2.765 3.888 2.944 3.608 3.023 3.484 3.089 3.357 3.14 3.225 3.192 3.093 3.232 2.967 3.26 2.845 3.288 2.723 3.304 2.609 3.307 2.502 3.31 2.395 3.306 2.317 3.295 2.269 3.285 2.22 3.274 2.186 3.265 2.167 3.255 2.149 3.241 2.13 3.224 2.111 3.206 2.092 3.184 2.072 3.158 2.05 3.131 2.028 3.098 2.005 3.058 1.98 3.014 1.951 2.975 1.93 2.942 1.914 2.908 1.899 2.878 1.889 2.851 1.884 2.825 1.88 2.802 1.881 2.785 1.886 2.767 1.892 2.753 1.904 2.741 1.922 2.721 1.953 2.715 2.01 2.723 2.093 2.73 2.176 2.732 2.278 2.728 2.398 2.724 2.519 2.703 2.656 2.666 2.808 2.629 2.961 2.554 3.125 2.442 3.3 2.32 3.491 2.171 3.64 1.995 3.747 1.819 3.855 1.622 3.917 1.403 3.933 1.185 3.95 .95 3.92 .698 3.845 .446 3.77 .183 3.645-.09 3.47-.361 3.297-.582 3.114-.753 2.922-.924 2.73-1.044 2.534-1.114 2.335-1.184 2.136-1.203 1.934-1.173 1.728-1.142 1.523-1.063 1.319-.934 1.117-.825 .947-.708 .811-.585 .71-.461 .61-.345 .531-.236 .475-.127 .418-.033 .374 .046 .343 .125 .312 .175 .28 .196 .247 .206 .232 .211 .216 .212 .201 .212 .186 .205 .169 .191 .15 .176 .131 .153 .11 .122 .085 .092 .061 .051 .032 0 0M2.146-4.245C2.109-4.293 2.076-4.328 2.047-4.348 2.018-4.368 1.99-4.374 1.963-4.366 1.937-4.359 1.908-4.336 1.877-4.298 1.847-4.26 1.81-4.207 1.766-4.138 1.722-4.07 1.689-4.014 1.666-3.971 1.644-3.928 1.629-3.894 1.624-3.868 1.618-3.842 1.619-3.82 1.625-3.802 1.632-3.783 1.643-3.763 1.657-3.742L2.464-2.709 1.326-.929 .073-1.237C.049-1.243 .026-1.245 .005-1.243-.016-1.241-.039-1.233-.062-1.218-.085-1.204-.111-1.178-.141-1.143-.17-1.107-.204-1.058-.243-.996-.284-.932-.315-.878-.336-.834-.356-.79-.364-.754-.359-.728-.354-.702-.337-.679-.306-.661-.276-.644-.231-.628-.171-.615L4.722 .493C4.752 .499 4.78 .501 4.804 .496 4.829 .492 4.854 .478 4.881 .457 4.907 .435 4.936 .403 4.967 .362 4.997 .322 5.034 .268 5.076 .202 5.121 .131 5.157 .072 5.183 .023 5.21-.025 5.228-.066 5.237-.101 5.247-.135 5.248-.165 5.241-.191 5.235-.217 5.222-.242 5.203-.267ZM4.477-.158 4.475-.155 1.87-.782 2.822-2.27Z" fill="#333333"/>
<path transform="matrix(1,0,0,-1,55.085908,162.6275)" d="M0 0C-.082-.053-.151-.092-.206-.118-.261-.144-.305-.156-.337-.153-.369-.15-.391-.135-.404-.109-.416-.082-.424-.044-.427 .005L-.951 5.151C-.955 5.194-.933 5.246-.883 5.306-.833 5.366-.749 5.433-.63 5.509-.578 5.543-.527 5.572-.477 5.596-.428 5.621-.385 5.637-.348 5.644-.311 5.652-.277 5.655-.246 5.654-.215 5.653-.19 5.644-.171 5.629L4.262 3.004C4.346 2.952 4.378 2.899 4.356 2.846 4.335 2.792 4.247 2.716 4.092 2.617 3.997 2.556 3.919 2.51 3.86 2.479 3.801 2.449 3.751 2.428 3.709 2.417 3.667 2.407 3.63 2.406 3.598 2.416 3.566 2.426 3.528 2.444 3.483 2.471L-.105 4.655 .385 .518C.39 .46 .391 .413 .388 .377 .386 .341 .372 .305 .346 .27 .319 .234 .279 .196 .225 .154 .17 .112 .095 .061 0 0" fill="#333333"/>
<path transform="matrix(1,0,0,-1,64.53671,165.08249)" d="M0 0C-.062-.04-.115-.069-.157-.086-.199-.104-.234-.116-.262-.123-.291-.129-.313-.128-.33-.121-.346-.113-.361-.099-.374-.079-.388-.056-.399-.022-.407 .022-.414 .066-.424 .118-.438 .179-.451 .24-.472 .309-.501 .386-.529 .463-.572 .546-.628 .634-.706 .756-.792 .847-.887 .908-.981 .968-1.087 .997-1.204 .996-1.322 .995-1.455 .964-1.603 .902-1.751 .839-1.92 .747-2.111 .625L-2.595 .316-1.96-.676C-1.943-.703-1.935-.729-1.935-.754-1.935-.78-1.944-.809-1.962-.841-1.981-.874-2.009-.908-2.046-.944-2.084-.979-2.134-1.017-2.196-1.057-2.315-1.133-2.41-1.173-2.482-1.177-2.553-1.181-2.605-1.158-2.636-1.109L-3.271-.117-7.165-2.608C-7.192-2.625-7.218-2.632-7.245-2.631-7.271-2.629-7.301-2.617-7.334-2.594-7.367-2.571-7.404-2.536-7.444-2.487-7.485-2.439-7.53-2.375-7.58-2.296-7.631-2.217-7.67-2.149-7.697-2.092-7.724-2.035-7.741-1.987-7.748-1.947-7.755-1.908-7.753-1.875-7.743-1.851-7.734-1.826-7.716-1.805-7.689-1.788L-3.795 .703-4.196 1.329C-4.23 1.382-4.229 1.438-4.193 1.498-4.157 1.558-4.08 1.626-3.961 1.702-3.899 1.742-3.844 1.773-3.797 1.793-3.75 1.814-3.708 1.827-3.672 1.832-3.636 1.836-3.605 1.832-3.581 1.82-3.557 1.808-3.536 1.788-3.52 1.762L-3.119 1.135-2.66 1.429C-2.35 1.627-2.066 1.768-1.807 1.852-1.548 1.937-1.31 1.965-1.093 1.937-.876 1.909-.676 1.827-.494 1.691-.312 1.555-.143 1.365 .013 1.121 .087 1.006 .148 .887 .196 .765 .244 .643 .274 .544 .288 .469 .301 .394 .304 .34 .297 .308 .29 .276 .275 .243 .252 .21 .229 .177 .197 .143 .156 .11 .114 .077 .063 .04 0 0" fill="#333333"/>
<path transform="matrix(1,0,0,-1,58.298494,174.31241)" d="M0 0C-.037-.049-.07-.083-.099-.103-.128-.123-.156-.13-.183-.122-.21-.114-.238-.091-.269-.053-.299-.015-.337 .038-.38 .106-.424 .175-.457 .23-.48 .273-.503 .316-.517 .35-.523 .376-.528 .402-.528 .424-.521 .443-.514 .461-.503 .481-.489 .503L.318 1.536-.82 3.315-2.073 3.008C-2.097 3.002-2.12 3-2.141 3.002-2.163 3.004-2.185 3.012-2.208 3.026-2.232 3.041-2.258 3.066-2.287 3.102-2.316 3.138-2.35 3.186-2.39 3.248-2.431 3.312-2.461 3.366-2.482 3.41-2.503 3.455-2.51 3.49-2.506 3.517-2.501 3.543-2.483 3.565-2.453 3.583-2.422 3.601-2.377 3.617-2.317 3.63L2.576 4.737C2.606 4.744 2.633 4.745 2.658 4.741 2.682 4.736 2.708 4.723 2.734 4.701 2.761 4.679 2.789 4.648 2.82 4.607 2.851 4.566 2.888 4.513 2.93 4.446 2.975 4.376 3.011 4.316 3.037 4.268 3.063 4.22 3.081 4.178 3.091 4.144 3.1 4.11 3.102 4.079 3.095 4.053 3.088 4.027 3.076 4.002 3.057 3.978ZM2.331 4.086 2.329 4.09-.276 3.463 .676 1.975ZM2.703-3.337C2.668-3.36 2.636-3.378 2.608-3.393 2.58-3.408 2.555-3.419 2.531-3.426 2.508-3.433 2.486-3.437 2.465-3.438 2.444-3.439 2.415-3.436 2.379-3.428 2.343-3.42 2.28-3.395 2.189-3.354 2.099-3.312 1.999-3.253 1.889-3.175 1.779-3.098 1.666-3.001 1.549-2.885 1.433-2.768 1.323-2.629 1.22-2.468 1.042-2.191 .928-1.91 .878-1.627 .827-1.344 .842-1.066 .922-.793 1.002-.519 1.147-.255 1.359-.001 1.57 .254 1.849 .492 2.195 .714 2.55 .941 2.896 1.097 3.232 1.184 3.568 1.27 3.886 1.292 4.185 1.25 4.483 1.208 4.757 1.104 5.006 .939 5.255 .773 5.468 .55 5.648 .27 5.727 .147 5.792 .019 5.843-.112 5.895-.244 5.935-.371 5.963-.492 5.991-.614 6.007-.729 6.01-.835 6.013-.942 6.009-1.02 5.998-1.069 5.988-1.117 5.977-1.151 5.968-1.17 5.958-1.189 5.944-1.207 5.927-1.226 5.909-1.245 5.887-1.265 5.861-1.287 5.834-1.309 5.801-1.332 5.762-1.358 5.717-1.386 5.679-1.408 5.645-1.423 5.611-1.438 5.581-1.448 5.554-1.453 5.528-1.457 5.506-1.457 5.488-1.451 5.47-1.445 5.456-1.433 5.444-1.415 5.424-1.384 5.418-1.327 5.426-1.244 5.433-1.161 5.435-1.06 5.431-.939 5.427-.818 5.406-.682 5.369-.529 5.332-.376 5.257-.212 5.145-.037 5.023 .154 4.874 .303 4.698 .41 4.522 .518 4.325 .58 4.106 .596 3.888 .613 3.653 .583 3.401 .508 3.149 .433 2.887 .308 2.613 .133 2.342-.04 2.121-.223 1.95-.415 1.779-.607 1.659-.803 1.589-1.002 1.519-1.201 1.5-1.404 1.53-1.609 1.561-1.815 1.64-2.018 1.769-2.22 1.878-2.39 1.995-2.526 2.118-2.627 2.242-2.727 2.358-2.806 2.467-2.863 2.576-2.919 2.67-2.963 2.749-2.994 2.828-3.025 2.878-3.057 2.899-3.09 2.909-3.106 2.914-3.121 2.915-3.136 2.915-3.152 2.908-3.169 2.894-3.187 2.879-3.206 2.856-3.227 2.826-3.252 2.795-3.276 2.754-3.305 2.703-3.337" fill="#333333"/>
<path transform="matrix(1,0,0,-1,68.0177,182.8456)" d="M0 0C-.082-.053-.151-.092-.206-.118-.261-.144-.305-.156-.337-.153-.369-.15-.391-.135-.404-.109-.416-.082-.424-.044-.427 .005L-.951 5.151C-.955 5.194-.933 5.246-.883 5.306-.833 5.365-.749 5.433-.63 5.509-.578 5.543-.527 5.572-.477 5.596-.428 5.621-.385 5.637-.348 5.644-.311 5.652-.277 5.655-.246 5.654-.215 5.653-.19 5.644-.171 5.629L4.262 3.004C4.346 2.952 4.378 2.899 4.356 2.846 4.335 2.792 4.247 2.716 4.092 2.617 3.997 2.556 3.919 2.51 3.86 2.479 3.801 2.449 3.751 2.428 3.709 2.417 3.667 2.407 3.63 2.406 3.598 2.416 3.566 2.426 3.528 2.444 3.483 2.471L-.105 4.655 .385 .518C.39 .46 .391 .413 .388 .377 .386 .341 .372 .305 .346 .27 .319 .234 .279 .196 .225 .154 .17 .112 .095 .061 0 0M9.731-3.709C9.668-3.749 9.612-3.78 9.562-3.803 9.511-3.826 9.467-3.838 9.429-3.839 9.39-3.841 9.357-3.835 9.331-3.822 9.304-3.809 9.283-3.791 9.268-3.768L7.772-1.428 5.6-2.818 7.014-5.029C7.029-5.052 7.037-5.078 7.04-5.107 7.042-5.135 7.035-5.166 7.019-5.2 7.003-5.233 6.975-5.267 6.935-5.302 6.895-5.337 6.84-5.377 6.771-5.421 6.709-5.461 6.653-5.492 6.604-5.514 6.556-5.535 6.512-5.547 6.474-5.549 6.435-5.55 6.402-5.545 6.373-5.533 6.345-5.521 6.323-5.503 6.308-5.48L4.894-3.269 2.233-4.971C2.21-4.985 2.184-4.993 2.154-4.994 2.124-4.994 2.093-4.982 2.061-4.956 2.028-4.931 1.991-4.894 1.949-4.847 1.907-4.799 1.859-4.733 1.804-4.647 1.753-4.568 1.714-4.498 1.687-4.437 1.659-4.376 1.641-4.325 1.631-4.285 1.622-4.245 1.623-4.211 1.636-4.184 1.649-4.157 1.667-4.136 1.69-4.122L7.604-.339C7.732-.257 7.843-.234 7.937-.269 8.032-.303 8.103-.359 8.151-.434L9.989-3.307C10.004-3.33 10.011-3.357 10.012-3.386 10.012-3.416 10.003-3.449 9.984-3.484 9.965-3.52 9.933-3.556 9.89-3.593 9.846-3.63 9.793-3.669 9.731-3.709" fill="#333333"/>
<path transform="matrix(1,0,0,-1,72.2001,196.0467)" d="M0 0C-.037-.049-.07-.083-.099-.103-.128-.123-.156-.13-.183-.122-.21-.114-.238-.091-.269-.053-.299-.015-.337 .038-.38 .106-.424 .175-.457 .23-.48 .273-.503 .316-.517 .35-.523 .376-.528 .402-.528 .424-.521 .443-.514 .461-.503 .481-.489 .503L.318 1.536-.82 3.315-2.073 3.008C-2.097 3.002-2.12 3-2.141 3.002-2.163 3.003-2.185 3.012-2.208 3.026-2.232 3.041-2.258 3.066-2.287 3.102-2.316 3.138-2.35 3.186-2.39 3.248-2.431 3.312-2.461 3.366-2.482 3.41-2.503 3.455-2.51 3.49-2.506 3.517-2.501 3.543-2.483 3.565-2.453 3.583-2.422 3.601-2.377 3.617-2.317 3.63L2.576 4.737C2.606 4.744 2.633 4.745 2.658 4.741 2.682 4.736 2.708 4.723 2.734 4.701 2.761 4.679 2.789 4.648 2.82 4.607 2.851 4.566 2.888 4.513 2.93 4.446 2.975 4.376 3.011 4.316 3.037 4.268 3.063 4.22 3.081 4.178 3.091 4.144 3.1 4.11 3.102 4.079 3.095 4.053 3.088 4.027 3.076 4.002 3.057 3.978ZM2.331 4.086 2.329 4.09-.276 3.463 .676 1.975ZM2.703-3.337C2.668-3.36 2.636-3.378 2.608-3.393 2.58-3.408 2.555-3.419 2.531-3.426 2.508-3.433 2.486-3.437 2.465-3.438 2.444-3.439 2.415-3.436 2.379-3.428 2.343-3.42 2.28-3.395 2.189-3.354 2.099-3.312 1.999-3.253 1.889-3.175 1.779-3.098 1.666-3.001 1.549-2.885 1.433-2.768 1.323-2.629 1.22-2.468 1.042-2.191 .928-1.91 .878-1.627 .827-1.344 .842-1.066 .922-.793 1.002-.519 1.147-.255 1.359-.001 1.57 .254 1.849 .492 2.195 .714 2.55 .941 2.896 1.097 3.232 1.184 3.568 1.27 3.886 1.292 4.185 1.25 4.483 1.208 4.757 1.104 5.006 .939 5.255 .773 5.468 .55 5.648 .27 5.727 .147 5.792 .019 5.843-.112 5.895-.244 5.935-.371 5.963-.492 5.991-.614 6.007-.729 6.01-.835 6.013-.942 6.009-1.02 5.998-1.069 5.988-1.117 5.977-1.151 5.968-1.17 5.958-1.189 5.944-1.207 5.927-1.226 5.909-1.245 5.887-1.266 5.861-1.287 5.834-1.309 5.801-1.332 5.762-1.358 5.717-1.386 5.679-1.408 5.645-1.423 5.611-1.438 5.581-1.448 5.554-1.453 5.528-1.457 5.506-1.457 5.488-1.451 5.47-1.445 5.456-1.433 5.444-1.415 5.424-1.384 5.418-1.327 5.426-1.244 5.433-1.162 5.435-1.06 5.431-.939 5.427-.818 5.406-.682 5.369-.529 5.332-.376 5.257-.212 5.145-.037 5.023 .154 4.874 .303 4.698 .41 4.522 .518 4.325 .58 4.106 .596 3.888 .613 3.653 .583 3.401 .508 3.149 .433 2.887 .308 2.613 .133 2.342-.04 2.121-.223 1.95-.415 1.779-.607 1.659-.803 1.589-1.002 1.519-1.201 1.5-1.404 1.53-1.609 1.561-1.815 1.64-2.018 1.769-2.22 1.878-2.39 1.995-2.526 2.118-2.627 2.242-2.727 2.358-2.806 2.467-2.863 2.576-2.919 2.67-2.963 2.749-2.994 2.828-3.025 2.878-3.057 2.899-3.09 2.909-3.106 2.914-3.121 2.915-3.136 2.915-3.152 2.908-3.169 2.894-3.187 2.879-3.206 2.856-3.227 2.826-3.252 2.795-3.276 2.754-3.305 2.703-3.337" fill="#333333"/>
</g>
<g clip-path="url(#clip_5)">
<path transform="matrix(1,0,0,-1,145.1907,190.8016)" d="M0 0C.061-.042 .112-.081 .153-.119 .194-.156 .223-.192 .239-.227 .255-.262 .263-.294 .262-.324 .26-.353 .252-.38 .236-.402L-1.327-2.697 .803-4.149 2.281-1.98C2.297-1.957 2.317-1.939 2.343-1.926 2.368-1.913 2.4-1.907 2.436-1.908 2.473-1.91 2.516-1.922 2.564-1.945 2.612-1.968 2.669-2.003 2.737-2.049 2.799-2.091 2.849-2.13 2.888-2.166 2.927-2.202 2.955-2.238 2.971-2.273 2.988-2.308 2.996-2.34 2.996-2.371 2.997-2.402 2.989-2.429 2.974-2.451L1.496-4.621 4.106-6.399C4.128-6.414 4.146-6.436 4.158-6.463 4.17-6.49 4.171-6.524 4.16-6.564 4.149-6.604 4.131-6.652 4.103-6.709 4.076-6.767 4.034-6.837 3.977-6.921 3.924-6.999 3.875-7.062 3.83-7.111 3.784-7.161 3.745-7.198 3.711-7.222 3.678-7.247 3.647-7.258 3.617-7.257 3.587-7.256 3.561-7.247 3.538-7.232L-2.263-3.28C-2.389-3.194-2.454-3.101-2.459-3-2.464-2.9-2.441-2.813-2.391-2.739L-.471 .079C-.455 .102-.434 .119-.407 .132-.379 .144-.346 .148-.306 .144-.266 .141-.22 .126-.169 .101-.118 .075-.061 .042 0 0" fill="#333333"/>
<path transform="matrix(1,0,0,-1,155.47193,192.2463)" d="M0 0C.035-.024 .064-.045 .089-.065 .113-.085 .133-.104 .149-.123 .165-.142 .177-.16 .187-.179 .196-.198 .204-.226 .211-.262 .218-.299 .22-.367 .217-.466 .214-.565 .199-.681 .171-.812 .143-.944 .099-1.086 .037-1.239-.024-1.392-.109-1.547-.216-1.705-.402-1.978-.615-2.193-.856-2.35-1.096-2.508-1.358-2.604-1.64-2.638-1.923-2.671-2.223-2.641-2.54-2.547-2.858-2.453-3.186-2.29-3.526-2.058-3.874-1.821-4.154-1.565-4.365-1.289-4.577-1.014-4.722-.731-4.8-.439-4.879-.148-4.891 .144-4.837 .438-4.782 .732-4.661 1.016-4.474 1.291-4.392 1.412-4.3 1.522-4.199 1.621-4.098 1.72-3.998 1.807-3.897 1.881-3.796 1.954-3.697 2.014-3.6 2.058-3.503 2.103-3.43 2.13-3.381 2.139-3.332 2.149-3.296 2.153-3.275 2.151-3.254 2.149-3.232 2.144-3.208 2.135-3.183 2.127-3.156 2.115-3.126 2.099-3.095 2.083-3.061 2.062-3.022 2.035-2.979 2.006-2.943 1.978-2.916 1.953-2.889 1.928-2.868 1.905-2.853 1.882-2.838 1.859-2.83 1.839-2.829 1.82-2.827 1.801-2.832 1.783-2.844 1.766-2.865 1.736-2.915 1.708-2.994 1.682-3.073 1.656-3.168 1.618-3.277 1.567-3.386 1.515-3.504 1.443-3.63 1.348-3.756 1.254-3.877 1.121-3.994 .95-4.122 .763-4.2 .567-4.23 .363-4.26 .159-4.239-.047-4.168-.255-4.098-.462-3.978-.667-3.81-.869-3.642-1.071-3.424-1.263-3.156-1.446-2.89-1.627-2.635-1.758-2.391-1.84-2.148-1.922-1.921-1.956-1.71-1.941-1.499-1.927-1.305-1.866-1.128-1.757-.952-1.649-.796-1.495-.661-1.298-.547-1.13-.468-.97-.424-.817-.38-.664-.353-.526-.344-.403-.335-.281-.331-.177-.334-.093-.336-.008-.327 .051-.304 .083-.294 .098-.282 .109-.268 .116-.254 .122-.236 .122-.213 .116-.19 .11-.161 .098-.127 .079-.092 .06-.05 .034 0 0M1.798 3.95C1.93 3.86 2.04 3.76 2.129 3.651 2.217 3.542 2.285 3.426 2.333 3.305 2.38 3.184 2.408 3.058 2.417 2.927 2.426 2.796 2.417 2.662 2.389 2.524 2.362 2.386 2.318 2.248 2.257 2.11 2.197 1.972 2.112 1.825 2.005 1.667L1.258 .57C1.224 .52 1.175 .485 1.111 .463 1.048 .442 .974 .46 .889 .517L-2.855 3.068C-2.939 3.126-2.983 3.188-2.986 3.255-2.99 3.322-2.974 3.381-2.94 3.43L-2.291 4.384C-2.12 4.635-1.956 4.824-1.799 4.952-1.643 5.08-1.482 5.166-1.319 5.211-1.155 5.256-.988 5.261-.82 5.225-.651 5.189-.483 5.115-.317 5.001-.217 4.934-.13 4.857-.056 4.771 .019 4.686 .079 4.593 .124 4.494 .169 4.396 .198 4.29 .211 4.179 .223 4.067 .218 3.953 .195 3.835 .295 3.935 .407 4.016 .533 4.076 .658 4.136 .79 4.174 .929 4.188 1.069 4.202 1.213 4.19 1.361 4.153 1.51 4.115 1.655 4.047 1.798 3.95M-.653 4.39C-.754 4.459-.856 4.507-.957 4.535-1.059 4.563-1.158 4.567-1.257 4.545-1.355 4.524-1.453 4.475-1.549 4.398-1.646 4.322-1.748 4.204-1.857 4.044L-2.25 3.468-.89 2.542-.458 3.176C-.36 3.321-.299 3.45-.277 3.565-.254 3.679-.255 3.787-.279 3.889-.303 3.99-.349 4.084-.416 4.169-.483 4.254-.562 4.328-.653 4.39M1.431 3.341C1.305 3.426 1.181 3.481 1.059 3.506 .936 3.531 .817 3.527 .7 3.495 .582 3.463 .468 3.4 .356 3.307 .243 3.215 .128 3.081 .009 2.906L-.446 2.239 1.034 1.231 1.585 2.041C1.672 2.168 1.732 2.29 1.767 2.405 1.801 2.521 1.813 2.635 1.803 2.748 1.793 2.861 1.758 2.968 1.697 3.069 1.636 3.171 1.547 3.261 1.431 3.341" fill="#333333"/>
<path transform="matrix(1,0,0,-1,160.06189,179.9847)" d="M0 0C.081-.055 .144-.103 .19-.143 .235-.184 .263-.219 .273-.25 .283-.28 .278-.306 .258-.328 .239-.35 .207-.373 .163-.395L-4.364-2.898C-4.402-2.919-4.458-2.918-4.533-2.896-4.607-2.873-4.703-2.823-4.819-2.743-4.87-2.708-4.917-2.673-4.959-2.637-5.001-2.602-5.033-2.568-5.054-2.537-5.075-2.506-5.091-2.476-5.103-2.447-5.114-2.418-5.116-2.392-5.109-2.368L-4.437 2.739C-4.422 2.838-4.385 2.887-4.328 2.888-4.271 2.89-4.166 2.838-4.014 2.735-3.921 2.671-3.848 2.618-3.797 2.576-3.745 2.534-3.706 2.495-3.68 2.461-3.654 2.427-3.639 2.393-3.635 2.36-3.632 2.327-3.634 2.284-3.641 2.232L-4.24-1.925-.627 .151C-.576 .178-.534 .197-.499 .209-.465 .221-.427 .222-.384 .212-.341 .202-.29 .18-.23 .146-.17 .113-.094 .064 0 0" fill="#333333"/>
<path transform="matrix(1,0,0,-1,158.60718,170.3292)" d="M0 0C.061-.042 .108-.079 .141-.11 .174-.142 .199-.17 .216-.193 .233-.217 .241-.238 .24-.256 .24-.274 .233-.293 .219-.313 .204-.335 .178-.359 .14-.383 .102-.407 .058-.437 .007-.473-.043-.509-.099-.556-.158-.612-.218-.668-.277-.74-.337-.827-.418-.947-.468-1.061-.486-1.172-.505-1.282-.49-1.391-.443-1.499-.396-1.607-.315-1.716-.2-1.828-.084-1.94 .067-2.059 .254-2.187L.729-2.51 1.392-1.537C1.41-1.511 1.43-1.493 1.453-1.483 1.477-1.473 1.507-1.47 1.544-1.474 1.582-1.478 1.624-1.491 1.672-1.511 1.719-1.532 1.774-1.563 1.835-1.605 1.951-1.684 2.025-1.756 2.057-1.82 2.089-1.884 2.088-1.94 2.055-1.989L1.392-2.962 5.213-5.565C5.239-5.583 5.256-5.604 5.265-5.629 5.274-5.654 5.274-5.686 5.266-5.726 5.258-5.765 5.24-5.813 5.211-5.869 5.183-5.925 5.142-5.992 5.089-6.069 5.036-6.147 4.989-6.209 4.947-6.256 4.906-6.304 4.868-6.338 4.834-6.36 4.8-6.382 4.77-6.393 4.744-6.394 4.717-6.395 4.691-6.387 4.665-6.369L.845-3.766 .426-4.381C.39-4.433 .338-4.454 .269-4.444 .2-4.435 .107-4.391-.009-4.312-.071-4.27-.12-4.231-.158-4.196-.195-4.161-.223-4.128-.242-4.096-.261-4.065-.269-4.035-.267-4.008-.265-3.981-.255-3.955-.238-3.929L.181-3.314-.269-3.007C-.573-2.8-.814-2.595-.993-2.39-1.173-2.185-1.292-1.977-1.352-1.766-1.412-1.555-1.415-1.339-1.361-1.118-1.307-.897-1.199-.667-1.036-.428-.959-.315-.874-.213-.78-.121-.687-.028-.608 .039-.544 .08-.481 .122-.432 .146-.4 .152-.367 .158-.331 .157-.292 .149-.252 .141-.209 .125-.162 .1-.115 .075-.061 .042 0 0" fill="#333333"/>
<path transform="matrix(1,0,0,-1,168.28339,172.13159)" d="M0 0C.132-.09 .242-.19 .331-.299 .419-.408 .487-.524 .535-.645 .582-.766 .61-.892 .619-1.023 .628-1.154 .619-1.288 .591-1.426 .563-1.564 .519-1.702 .459-1.84 .398-1.978 .314-2.125 .207-2.283L-.54-3.38C-.574-3.43-.623-3.465-.687-3.487-.751-3.508-.825-3.49-.909-3.433L-4.653-.882C-4.737-.824-4.781-.762-4.784-.695-4.788-.628-4.772-.569-4.739-.52L-4.089 .434C-3.918 .685-3.754 .874-3.597 1.002-3.441 1.13-3.281 1.216-3.117 1.261-2.953 1.306-2.787 1.311-2.618 1.275-2.449 1.24-2.281 1.165-2.115 1.051-2.015 .984-1.928 .907-1.854 .821-1.779 .736-1.719 .643-1.674 .544-1.629 .446-1.6 .34-1.587 .229-1.575 .117-1.58 .003-1.603-.115-1.503-.015-1.391 .066-1.266 .126-1.141 .186-1.008 .224-.869 .238-.729 .252-.585 .24-.437 .203-.288 .165-.143 .097 0 0M-2.451 .44C-2.553 .509-2.654 .557-2.755 .585-2.857 .613-2.957 .617-3.055 .595-3.154 .574-3.251 .525-3.347 .448-3.444 .372-3.547 .254-3.655 .094L-4.048-.482-2.688-1.408-2.256-.774C-2.158-.629-2.097-.5-2.075-.385-2.052-.271-2.053-.163-2.077-.061-2.102 .04-2.147 .134-2.214 .219-2.281 .304-2.36 .378-2.451 .44M-.368-.609C-.493-.524-.617-.469-.739-.444-.862-.419-.982-.423-1.099-.455-1.216-.487-1.33-.55-1.443-.643-1.555-.735-1.67-.869-1.79-1.044L-2.244-1.711-.765-2.719-.213-1.909C-.126-1.782-.066-1.66-.031-1.545 .003-1.429 .015-1.315 .005-1.202-.005-1.089-.041-.982-.101-.881-.162-.779-.251-.689-.368-.609M3.067 3.19C3.101 3.167 3.131 3.145 3.155 3.125 3.18 3.105 3.2 3.086 3.216 3.067 3.231 3.049 3.244 3.03 3.253 3.011 3.262 2.992 3.271 2.964 3.277 2.928 3.284 2.892 3.286 2.824 3.284 2.724 3.281 2.625 3.265 2.509 3.238 2.378 3.21 2.246 3.165 2.104 3.104 1.951 3.042 1.798 2.958 1.643 2.85 1.485 2.664 1.213 2.451 .997 2.211 .84 1.971 .682 1.709 .586 1.426 .553 1.144 .519 .844 .549 .526 .643 .209 .738-.12 .901-.459 1.132-.807 1.369-1.087 1.625-1.299 1.901-1.51 2.176-1.655 2.46-1.734 2.751-1.812 3.042-1.825 3.334-1.77 3.628-1.716 3.922-1.595 4.206-1.408 4.481-1.325 4.602-1.233 4.712-1.133 4.811-1.032 4.911-.931 4.997-.83 5.071-.729 5.145-.63 5.204-.533 5.249-.436 5.293-.363 5.32-.314 5.33-.265 5.339-.23 5.343-.209 5.341-.188 5.339-.165 5.334-.141 5.326-.117 5.317-.089 5.305-.059 5.289-.029 5.273 .006 5.252 .045 5.225 .088 5.196 .123 5.169 .151 5.144 .178 5.119 .199 5.095 .214 5.072 .228 5.049 .236 5.029 .238 5.01 .24 4.992 .234 4.974 .222 4.956 .202 4.926 .152 4.898 .073 4.872-.007 4.846-.101 4.808-.21 4.757-.32 4.706-.437 4.633-.563 4.539-.689 4.445-.81 4.312-.927 4.14-1.055 3.953-1.134 3.757-1.163 3.553-1.193 3.349-1.173 3.143-1.102 2.936-1.031 2.728-.912 2.524-.744 2.322-.576 2.12-.358 1.927-.089 1.744 .177 1.563 .432 1.432 .675 1.35 .919 1.268 1.146 1.235 1.357 1.249 1.567 1.263 1.761 1.324 1.938 1.433 2.115 1.542 2.271 1.695 2.406 1.893 2.52 2.06 2.599 2.22 2.643 2.373 2.687 2.526 2.714 2.664 2.723 2.787 2.732 2.91 2.735 3.013 2.733 3.098 2.73 3.182 2.74 3.241 2.762 3.273 2.773 3.289 2.785 3.3 2.799 3.306 2.813 3.312 2.831 3.313 2.854 3.307 2.877 3.301 2.905 3.288 2.94 3.269 2.975 3.251 3.017 3.224 3.067 3.19" fill="#333333"/>
<path transform="matrix(1,0,0,-1,173.44013,160.349)" d="M0 0C.081-.055 .144-.103 .19-.143 .235-.184 .263-.219 .273-.25 .283-.28 .278-.306 .258-.328 .239-.35 .207-.373 .163-.395L-4.364-2.898C-4.402-2.919-4.458-2.918-4.533-2.896-4.607-2.873-4.703-2.823-4.819-2.743-4.87-2.708-4.917-2.673-4.959-2.637-5.001-2.602-5.033-2.568-5.054-2.537-5.075-2.506-5.091-2.476-5.103-2.447-5.114-2.418-5.116-2.392-5.109-2.368L-4.437 2.739C-4.422 2.838-4.385 2.887-4.328 2.888-4.271 2.89-4.166 2.838-4.014 2.735-3.921 2.671-3.848 2.618-3.797 2.576-3.745 2.534-3.706 2.495-3.68 2.461-3.654 2.427-3.639 2.393-3.635 2.36-3.632 2.327-3.634 2.284-3.641 2.232L-4.24-1.925-.627 .151C-.576 .178-.534 .197-.499 .209-.465 .221-.427 .222-.384 .212-.341 .202-.29 .18-.23 .146-.17 .113-.094 .064 0 0M-.479 10.306C-.418 10.265-.367 10.225-.326 10.188-.285 10.151-.257 10.115-.24 10.08-.224 10.045-.216 10.013-.218 9.983-.219 9.953-.228 9.927-.243 9.904L-1.807 7.609 .324 6.157 1.802 8.327C1.817 8.349 1.838 8.367 1.863 8.38 1.889 8.394 1.92 8.4 1.957 8.398 1.994 8.397 2.036 8.384 2.084 8.361 2.132 8.338 2.19 8.303 2.258 8.257 2.319 8.215 2.369 8.176 2.409 8.14 2.448 8.104 2.476 8.068 2.492 8.034 2.509 7.999 2.517 7.966 2.517 7.935 2.517 7.904 2.51 7.877 2.494 7.855L1.016 5.686 3.626 3.907C3.649 3.892 3.666 3.871 3.678 3.843 3.691 3.816 3.691 3.783 3.681 3.743 3.67 3.703 3.651 3.654 3.624 3.597 3.597 3.54 3.555 3.469 3.498 3.385 3.445 3.308 3.396 3.244 3.35 3.195 3.305 3.146 3.265 3.109 3.232 3.084 3.199 3.059 3.167 3.048 3.137 3.049 3.108 3.051 3.081 3.059 3.059 3.074L-2.742 7.027C-2.868 7.113-2.934 7.206-2.938 7.306-2.943 7.406-2.921 7.493-2.87 7.568L-.95 10.386C-.935 10.408-.913 10.426-.886 10.438-.859 10.45-.825 10.454-.785 10.451-.745 10.447-.699 10.433-.648 10.407-.597 10.382-.541 10.348-.479 10.306" fill="#333333"/>
<path transform="matrix(1,0,0,-1,182.6076,151.10752)" d="M0 0C.132-.09 .242-.19 .331-.299 .419-.408 .487-.524 .535-.645 .582-.766 .61-.892 .619-1.023 .628-1.154 .619-1.288 .591-1.426 .563-1.564 .519-1.702 .459-1.84 .398-1.978 .314-2.125 .207-2.283L-.54-3.38C-.574-3.43-.623-3.465-.687-3.487-.751-3.508-.825-3.49-.909-3.433L-4.653-.882C-4.737-.824-4.781-.762-4.784-.695-4.788-.628-4.772-.569-4.739-.52L-4.089 .434C-3.918 .685-3.754 .874-3.597 1.002-3.441 1.13-3.281 1.216-3.117 1.261-2.953 1.306-2.787 1.311-2.618 1.275-2.449 1.24-2.281 1.165-2.115 1.051-2.015 .984-1.928 .907-1.854 .821-1.779 .736-1.719 .643-1.674 .544-1.629 .446-1.6 .34-1.587 .229-1.575 .117-1.58 .003-1.603-.115-1.503-.015-1.391 .066-1.266 .126-1.141 .186-1.008 .224-.869 .238-.729 .252-.585 .24-.437 .203-.288 .165-.143 .097 0 0M-2.451 .44C-2.553 .509-2.654 .557-2.755 .585-2.857 .613-2.957 .617-3.055 .595-3.154 .574-3.251 .525-3.347 .448-3.444 .372-3.547 .254-3.655 .094L-4.048-.482-2.688-1.408-2.256-.774C-2.158-.629-2.097-.5-2.075-.385-2.052-.271-2.053-.163-2.077-.061-2.102 .04-2.147 .134-2.214 .219-2.281 .304-2.36 .378-2.451 .44M-.368-.609C-.493-.524-.617-.469-.739-.444-.862-.419-.982-.423-1.099-.455-1.216-.487-1.33-.55-1.443-.643-1.555-.735-1.67-.869-1.79-1.044L-2.244-1.711-.765-2.719-.213-1.909C-.126-1.782-.066-1.66-.031-1.545 .003-1.429 .015-1.315 .005-1.202-.005-1.089-.041-.982-.101-.881-.162-.779-.251-.689-.368-.609M3.067 3.19C3.101 3.167 3.131 3.145 3.155 3.125 3.18 3.105 3.2 3.086 3.216 3.067 3.231 3.049 3.244 3.03 3.253 3.011 3.262 2.992 3.271 2.964 3.277 2.928 3.284 2.892 3.286 2.824 3.284 2.724 3.281 2.625 3.265 2.509 3.238 2.378 3.21 2.246 3.165 2.104 3.104 1.951 3.042 1.798 2.958 1.643 2.85 1.485 2.664 1.213 2.451 .997 2.211 .84 1.971 .682 1.709 .586 1.426 .553 1.144 .519 .844 .549 .526 .643 .209 .738-.12 .901-.459 1.132-.807 1.369-1.087 1.625-1.299 1.901-1.51 2.176-1.655 2.46-1.734 2.751-1.812 3.042-1.825 3.334-1.77 3.628-1.716 3.922-1.595 4.206-1.408 4.481-1.325 4.602-1.233 4.712-1.133 4.811-1.032 4.911-.931 4.997-.83 5.071-.729 5.145-.63 5.204-.533 5.249-.436 5.293-.363 5.32-.314 5.33-.265 5.339-.23 5.343-.209 5.341-.188 5.339-.165 5.334-.141 5.326-.117 5.317-.089 5.305-.059 5.289-.029 5.273 .006 5.252 .045 5.225 .088 5.196 .123 5.169 .151 5.144 .178 5.119 .199 5.095 .214 5.072 .228 5.049 .236 5.029 .238 5.01 .24 4.992 .234 4.974 .222 4.956 .202 4.926 .152 4.898 .073 4.872-.007 4.846-.101 4.808-.21 4.757-.32 4.706-.437 4.633-.563 4.539-.689 4.445-.81 4.312-.927 4.14-1.055 3.953-1.134 3.757-1.163 3.553-1.193 3.349-1.173 3.143-1.102 2.936-1.031 2.728-.912 2.524-.744 2.322-.576 2.12-.358 1.927-.089 1.744 .177 1.563 .432 1.432 .675 1.35 .919 1.268 1.146 1.235 1.357 1.249 1.567 1.263 1.761 1.324 1.938 1.433 2.115 1.542 2.271 1.695 2.406 1.893 2.52 2.06 2.599 2.22 2.643 2.373 2.687 2.526 2.714 2.664 2.723 2.787 2.732 2.91 2.735 3.013 2.733 3.098 2.73 3.182 2.74 3.241 2.762 3.273 2.773 3.289 2.785 3.3 2.799 3.306 2.813 3.312 2.831 3.313 2.854 3.307 2.877 3.301 2.905 3.288 2.94 3.269 2.975 3.251 3.017 3.224 3.067 3.19" fill="#333333"/>
</g>
<path transform="matrix(1,0,0,-1,26.019989,116.34)" stroke-width="2" stroke-linecap="butt" stroke-linejoin="round" fill="none" stroke="#6a737b" d="M0 0V-53.781"/>
<path transform="matrix(1,0,0,-1,29.020295,169.12149)" d="M0 0-3-6-6 0Z" fill="#6a737b" fill-rule="evenodd"/>
<text fill="#6a737b" xml:space="preserve" transform="matrix(1 0 -0 1 -359 435)" font-size="12" font-family="Calibri"><tspan y="-245.0602" x="373.0637 378.1037 384.4637 390.2237">Load</tspan></text>
<path transform="matrix(1,0,0,-1,195.70001,116.34)" stroke-width="2" stroke-linecap="butt" stroke-linejoin="round" fill="none" stroke="#6a737b" d="M0 0V-54.048"/>
<path transform="matrix(1,0,0,-1,198.70038,169.38849)" d="M0 0-3-6-6 0Z" fill="#6a737b" fill-rule="evenodd"/>
<text fill="#6a737b" xml:space="preserve" transform="matrix(1 0 -0 1 -359 435)" font-size="12" font-family="Calibri"><tspan y="-244.7932" x="542.8067 547.8467 554.20669 559.9667">Load</tspan></text>
<path transform="matrix(1,0,0,-1,109.78009,251.7)" stroke-width="2" stroke-linecap="butt" stroke-linejoin="round" fill="none" stroke="#6a737b" d="M0 0V-43.451"/>
<path transform="matrix(1,0,0,-1,106.779788,294.1507)" d="M0 0 3-6 6 0Z" fill="#6a737b" fill-rule="evenodd"/>
<text fill="#6a737b" xml:space="preserve" transform="matrix(1 0 -0 1 -359 435)" font-size="12" font-family="Calibri"><tspan y="-120.0521" x="456.8705 461.91053 468.27055 474.03053">Load</tspan></text>
</g>
</svg>
